<?xml version="1.0" encoding="UTF-8"?>
<svg xmlns="http://www.w3.org/2000/svg" xmlns:xlink="http://www.w3.org/1999/xlink" width="48px" height="48px" viewBox="0 0 48 48" version="1.1">
<g id="surface1">
<path style=" stroke:none;fill-rule:nonzero;fill:rgb(100%,47.450981%,21.960784%);fill-opacity:1;" d="M 8.296875 46.472656 C 6.992188 46.292969 5.679688 45.777344 4.59375 45.007812 C 4.070312 44.644531 3.179688 43.765625 2.808594 43.265625 C 1.996094 42.171875 1.472656 40.929688 1.234375 39.558594 C 1.160156 39.097656 1.148438 38.242188 1.132812 24.585938 C 1.125 14.851562 1.140625 9.871094 1.171875 9.398438 C 1.277344 7.820312 1.722656 6.507812 2.570312 5.246094 C 2.910156 4.742188 3.414062 4.148438 3.820312 3.789062 C 3.945312 3.679688 4.105469 3.539062 4.171875 3.476562 C 4.421875 3.246094 5.34375 2.664062 5.8125 2.441406 C 6.402344 2.160156 7.117188 1.914062 7.78125 1.773438 L 8.273438 1.664062 L 39.773438 1.664062 L 40.265625 1.773438 C 42.09375 2.175781 43.707031 3.097656 44.839844 4.390625 C 45.820312 5.515625 46.492188 6.890625 46.789062 8.390625 L 46.898438 8.929688 L 46.914062 23.742188 C 46.921875 34.246094 46.914062 38.703125 46.875 39.070312 C 46.585938 41.996094 44.832031 44.492188 42.1875 45.757812 C 41.660156 46.011719 40.816406 46.285156 40.164062 46.414062 L 39.632812 46.523438 L 24.210938 46.535156 C 11.101562 46.539062 8.714844 46.527344 8.296875 46.472656 Z M 24.527344 39.242188 C 24.558594 39.210938 24.609375 39.1875 24.648438 39.1875 C 24.714844 39.1875 25.097656 39.015625 25.214844 38.929688 C 25.296875 38.867188 25.789062 38.378906 25.855469 38.289062 C 25.972656 38.132812 26.164062 37.664062 26.210938 37.414062 C 26.257812 37.144531 26.230469 36.660156 26.15625 36.523438 C 26.132812 36.476562 26.0625 36.320312 25.996094 36.171875 C 25.875 35.890625 25.351562 35.296875 25.234375 35.296875 C 25.199219 35.296875 25.171875 35.277344 25.171875 35.257812 C 25.171875 35.203125 24.828125 35.042969 24.496094 34.945312 C 24.289062 34.882812 24.128906 34.871094 23.832031 34.890625 C 23.609375 34.898438 23.410156 34.929688 23.378906 34.960938 C 23.347656 34.984375 23.257812 35.015625 23.183594 35.035156 C 22.984375 35.085938 22.554688 35.378906 22.308594 35.640625 C 21.953125 36.015625 21.695312 36.632812 21.691406 37.125 C 21.691406 37.378906 21.828125 37.867188 21.984375 38.132812 C 22.101562 38.339844 22.464844 38.753906 22.695312 38.933594 C 22.785156 39.003906 23.148438 39.171875 23.390625 39.257812 C 23.632812 39.339844 24.441406 39.328125 24.527344 39.242188 Z M 13.078125 35.585938 C 13.089844 35.566406 13.222656 35.53125 13.371094 35.511719 C 13.519531 35.492188 13.640625 35.460938 13.640625 35.441406 C 13.640625 35.417969 13.710938 35.390625 13.800781 35.378906 C 13.992188 35.34375 14.4375 35.128906 14.804688 34.890625 C 15.695312 34.296875 16.332031 33.46875 16.613281 32.523438 C 16.660156 32.378906 16.742188 32.203125 16.804688 32.136719 L 16.914062 32.015625 L 30.992188 32.015625 L 31.125 32.15625 C 31.195312 32.230469 31.273438 32.378906 31.289062 32.472656 C 31.347656 32.785156 31.613281 33.328125 31.945312 33.804688 C 32.148438 34.097656 32.648438 34.574219 32.996094 34.816406 C 33.320312 35.039062 34.023438 35.390625 34.140625 35.390625 C 34.179688 35.390625 34.222656 35.410156 34.238281 35.433594 C 34.257812 35.457031 34.378906 35.492188 34.515625 35.507812 C 34.648438 35.527344 34.785156 35.566406 34.820312 35.597656 C 34.914062 35.664062 36.152344 35.664062 36.242188 35.589844 C 36.277344 35.566406 36.429688 35.527344 36.578125 35.507812 C 36.722656 35.492188 36.859375 35.457031 36.871094 35.433594 C 36.882812 35.410156 36.933594 35.390625 36.976562 35.390625 C 37.085938 35.390625 38.082031 34.890625 38.101562 34.828125 C 38.109375 34.800781 38.148438 34.78125 38.179688 34.78125 C 38.25 34.78125 39.007812 34.046875 39.207031 33.785156 C 39.433594 33.484375 39.84375 32.703125 39.84375 32.570312 C 39.84375 32.53125 39.863281 32.484375 39.882812 32.457031 C 39.933594 32.414062 39.996094 32.132812 40.085938 31.617188 C 40.132812 31.3125 40.109375 30.582031 40.035156 30.351562 C 40.011719 30.277344 39.957031 30.085938 39.914062 29.929688 C 39.714844 29.246094 39.320312 28.578125 38.792969 28.050781 C 38.183594 27.445312 37.648438 27.121094 36.789062 26.851562 C 36.335938 26.710938 36.261719 26.699219 35.679688 26.703125 C 35.304688 26.710938 35.027344 26.734375 35.003906 26.757812 C 34.972656 26.789062 34.785156 26.8125 34.585938 26.8125 L 34.21875 26.8125 L 34.078125 26.589844 C 34.003906 26.464844 33.9375 26.339844 33.9375 26.308594 C 33.9375 26.277344 33.917969 26.25 33.890625 26.25 C 33.867188 26.25 33.84375 26.226562 33.84375 26.203125 C 33.84375 26.175781 33.429688 25.453125 32.921875 24.597656 C 32.414062 23.742188 31.96875 22.988281 31.929688 22.921875 C 31.898438 22.855469 31.828125 22.742188 31.78125 22.664062 C 31.726562 22.589844 31.648438 22.441406 31.589844 22.335938 C 31.535156 22.234375 31.289062 21.816406 31.050781 21.410156 C 30.804688 21 30.609375 20.652344 30.609375 20.640625 C 30.609375 20.621094 30.582031 20.570312 30.542969 20.535156 C 30.507812 20.492188 30.429688 20.367188 30.367188 20.25 C 30.300781 20.132812 30.207031 19.972656 30.160156 19.890625 C 30.113281 19.808594 29.945312 19.527344 29.789062 19.265625 C 29.632812 18.996094 29.476562 18.730469 29.433594 18.660156 C 29.34375 18.515625 28.726562 17.472656 28.523438 17.109375 C 28.359375 16.820312 28.007812 16.238281 27.9375 16.125 C 27.910156 16.085938 27.871094 16.011719 27.847656 15.960938 C 27.824219 15.910156 27.628906 15.566406 27.402344 15.195312 C 27.183594 14.828125 27 14.476562 27 14.410156 C 27 14.230469 27.113281 14.007812 27.320312 13.789062 C 27.515625 13.589844 27.914062 13.015625 28.015625 12.796875 C 28.347656 12.085938 28.425781 11.738281 28.425781 10.992188 C 28.425781 10.496094 28.40625 10.285156 28.347656 10.125 C 28.304688 10.007812 28.265625 9.882812 28.265625 9.851562 C 28.265625 9.703125 27.871094 8.910156 27.652344 8.621094 C 26.878906 7.585938 25.929688 6.976562 24.703125 6.746094 C 24.179688 6.640625 23.078125 6.703125 22.898438 6.84375 C 22.875 6.863281 22.777344 6.898438 22.6875 6.914062 C 22.597656 6.933594 22.496094 6.964844 22.453125 6.992188 C 22.414062 7.007812 22.265625 7.085938 22.125 7.148438 C 21.601562 7.398438 21.339844 7.585938 20.945312 7.976562 C 20.417969 8.492188 20.023438 9.132812 19.828125 9.742188 C 19.773438 9.914062 19.707031 10.121094 19.683594 10.195312 C 19.609375 10.414062 19.574219 11.382812 19.632812 11.617188 C 19.664062 11.722656 19.710938 11.902344 19.734375 12.015625 C 19.785156 12.226562 19.789062 12.234375 20.023438 12.726562 C 20.175781 13.050781 20.402344 13.433594 20.503906 13.523438 C 20.53125 13.554688 20.664062 13.703125 20.804688 13.859375 C 21.027344 14.128906 21.046875 14.164062 21.046875 14.390625 C 21.046875 14.554688 21.019531 14.679688 20.960938 14.757812 C 20.886719 14.859375 20.648438 15.257812 19.6875 16.875 C 19.664062 16.914062 19.453125 17.269531 19.214844 17.664062 C 18.976562 18.058594 18.765625 18.429688 18.730469 18.484375 C 18.703125 18.539062 18.617188 18.675781 18.546875 18.785156 C 18.476562 18.898438 18.421875 18.992188 18.421875 19.003906 C 18.421875 19.011719 18.28125 19.246094 18.113281 19.527344 C 17.945312 19.808594 17.757812 20.117188 17.714844 20.203125 C 17.664062 20.289062 17.585938 20.433594 17.53125 20.507812 C 17.476562 20.585938 17.421875 20.679688 17.402344 20.71875 C 17.390625 20.757812 17.316406 20.878906 17.242188 20.984375 C 17.171875 21.09375 17.109375 21.191406 17.109375 21.207031 C 17.109375 21.234375 16.722656 21.890625 16.585938 22.085938 C 16.539062 22.160156 16.5 22.226562 16.5 22.242188 C 16.5 22.257812 16.441406 22.367188 16.359375 22.476562 C 16.285156 22.589844 16.21875 22.691406 16.21875 22.707031 C 16.21875 22.726562 16.050781 23.007812 15.84375 23.347656 C 15.636719 23.679688 15.46875 23.972656 15.46875 23.984375 C 15.46875 24 15.410156 24.101562 15.328125 24.222656 C 15.253906 24.335938 15.1875 24.433594 15.1875 24.445312 C 15.1875 24.464844 14.390625 25.816406 14.164062 26.183594 C 14.082031 26.316406 14.015625 26.441406 14.015625 26.460938 C 14.015625 26.484375 13.964844 26.570312 13.894531 26.660156 C 13.78125 26.808594 13.761719 26.8125 13.453125 26.8125 C 13.273438 26.8125 13.070312 26.789062 12.996094 26.757812 C 12.816406 26.691406 11.609375 26.679688 11.527344 26.746094 C 11.492188 26.777344 11.371094 26.816406 11.265625 26.835938 C 11.152344 26.851562 11.054688 26.886719 11.035156 26.910156 C 11.023438 26.933594 10.972656 26.953125 10.929688 26.953125 C 10.882812 26.953125 10.773438 26.996094 10.671875 27.046875 C 10.578125 27.097656 10.480469 27.140625 10.460938 27.140625 C 10.398438 27.140625 9.867188 27.492188 9.585938 27.722656 C 9.277344 27.976562 9.015625 28.253906 8.851562 28.503906 C 8.808594 28.570312 8.742188 28.660156 8.710938 28.691406 C 8.652344 28.757812 8.621094 28.808594 8.484375 29.054688 C 8.367188 29.265625 8.210938 29.644531 8.179688 29.777344 C 8.160156 29.867188 8.128906 29.953125 8.109375 29.976562 C 7.96875 30.164062 7.839844 31.648438 7.953125 31.796875 C 7.984375 31.820312 8.015625 31.953125 8.035156 32.082031 C 8.046875 32.210938 8.082031 32.335938 8.101562 32.363281 C 8.128906 32.390625 8.160156 32.484375 8.179688 32.570312 C 8.214844 32.742188 8.566406 33.433594 8.726562 33.671875 C 8.914062 33.933594 9.320312 34.367188 9.542969 34.554688 C 9.671875 34.652344 9.804688 34.765625 9.847656 34.800781 C 9.972656 34.898438 10.578125 35.25 10.632812 35.25 C 10.660156 35.25 10.746094 35.289062 10.835938 35.328125 C 11.109375 35.464844 11.132812 35.472656 11.390625 35.507812 C 11.53125 35.527344 11.671875 35.558594 11.695312 35.578125 C 11.722656 35.601562 11.828125 35.628906 11.929688 35.640625 C 12.203125 35.671875 13.046875 35.628906 13.078125 35.585938 Z M 37.070312 22.40625 C 37.117188 22.382812 37.246094 22.320312 37.367188 22.265625 C 37.667969 22.128906 38.007812 21.789062 38.203125 21.421875 C 38.351562 21.140625 38.363281 21.085938 38.367188 20.714844 C 38.367188 20.347656 38.351562 20.285156 38.210938 19.992188 C 38.066406 19.714844 37.851562 19.445312 37.632812 19.285156 C 37.578125 19.242188 37.441406 19.164062 37.148438 19.015625 C 37.015625 18.953125 36.339844 18.914062 36.273438 18.972656 C 36.242188 18.996094 36.148438 19.03125 36.078125 19.050781 C 35.558594 19.179688 34.929688 19.941406 34.839844 20.554688 C 34.816406 20.777344 34.910156 21.152344 35.078125 21.488281 C 35.214844 21.753906 35.664062 22.183594 35.90625 22.285156 C 36.023438 22.332031 36.160156 22.386719 36.210938 22.410156 C 36.429688 22.5 36.898438 22.5 37.070312 22.40625 Z M 12.773438 21.640625 C 12.851562 21.601562 12.933594 21.5625 12.953125 21.5625 C 12.996094 21.5625 13.386719 21.296875 13.496094 21.1875 C 13.601562 21.085938 13.890625 20.714844 13.960938 20.585938 C 14.15625 20.234375 14.246094 19.472656 14.121094 19.210938 C 13.882812 18.691406 13.78125 18.523438 13.554688 18.285156 C 13.304688 18.039062 13.058594 17.886719 12.65625 17.734375 C 12.433594 17.644531 11.785156 17.597656 11.710938 17.664062 C 11.679688 17.683594 11.566406 17.722656 11.460938 17.742188 C 11.359375 17.757812 11.183594 17.839844 11.070312 17.910156 C 10.960938 17.984375 10.855469 18.046875 10.835938 18.046875 C 10.78125 18.046875 10.441406 18.421875 10.296875 18.636719 C 9.996094 19.085938 9.890625 19.679688 10.027344 20.15625 C 10.21875 20.847656 10.894531 21.527344 11.554688 21.710938 C 11.796875 21.773438 12.617188 21.726562 12.773438 21.640625 Z M 12.773438 21.640625 "/>
<path style=" stroke:none;fill-rule:nonzero;fill:rgb(100%,47.450981%,21.960784%);fill-opacity:1;" d="M 16.808594 30.257812 C 16.746094 30.191406 16.683594 30.058594 16.664062 29.964844 C 16.648438 29.878906 16.617188 29.765625 16.59375 29.722656 C 16.574219 29.679688 16.476562 29.476562 16.378906 29.273438 C 16.179688 28.867188 15.882812 28.441406 15.589844 28.148438 C 15.328125 27.890625 15.234375 27.734375 15.234375 27.558594 C 15.234375 27.429688 15.390625 27.101562 15.679688 26.617188 C 15.703125 26.570312 15.917969 26.210938 16.152344 25.820312 C 16.390625 25.425781 16.632812 25.015625 16.6875 24.914062 C 16.742188 24.808594 16.828125 24.675781 16.875 24.609375 C 16.914062 24.542969 16.96875 24.460938 16.984375 24.421875 C 17.003906 24.382812 17.066406 24.265625 17.132812 24.164062 C 17.195312 24.058594 17.269531 23.933594 17.289062 23.882812 C 17.316406 23.832031 17.390625 23.710938 17.457031 23.609375 C 17.523438 23.511719 17.578125 23.421875 17.578125 23.414062 C 17.578125 23.398438 17.828125 22.976562 18.597656 21.679688 C 18.671875 21.554688 18.746094 21.414062 18.765625 21.375 C 18.785156 21.335938 18.839844 21.242188 18.890625 21.164062 C 18.941406 21.089844 18.996094 20.992188 19.015625 20.953125 C 19.035156 20.914062 19.179688 20.664062 19.347656 20.398438 C 19.507812 20.128906 19.640625 19.902344 19.640625 19.894531 C 19.640625 19.882812 19.695312 19.800781 19.761719 19.703125 C 19.828125 19.601562 19.902344 19.480469 19.929688 19.429688 C 19.949219 19.378906 20.015625 19.257812 20.066406 19.171875 C 20.121094 19.085938 20.324219 18.734375 20.527344 18.410156 C 20.722656 18.078125 20.933594 17.710938 21 17.585938 C 21.066406 17.464844 21.171875 17.285156 21.242188 17.179688 C 21.304688 17.078125 21.414062 16.890625 21.488281 16.757812 C 21.5625 16.632812 21.636719 16.503906 21.65625 16.476562 C 21.675781 16.453125 21.742188 16.347656 21.796875 16.242188 C 21.859375 16.140625 21.964844 15.953125 22.039062 15.820312 C 22.117188 15.695312 22.199219 15.535156 22.234375 15.46875 C 22.339844 15.242188 22.445312 15.191406 22.828125 15.1875 C 23.039062 15.1875 23.210938 15.210938 23.242188 15.242188 C 23.328125 15.335938 24.476562 15.316406 24.863281 15.214844 C 25.226562 15.121094 25.539062 15.148438 25.652344 15.273438 C 25.691406 15.316406 25.894531 15.648438 26.101562 16.007812 C 26.316406 16.367188 26.507812 16.695312 26.53125 16.734375 C 26.554688 16.773438 26.691406 17.007812 26.835938 17.25 C 26.980469 17.492188 27.117188 17.726562 27.140625 17.765625 C 27.164062 17.804688 27.28125 18.003906 27.402344 18.210938 C 27.523438 18.414062 27.691406 18.703125 27.777344 18.851562 C 27.867188 18.996094 27.9375 19.128906 27.9375 19.152344 C 27.9375 19.171875 27.972656 19.222656 28.007812 19.265625 C 28.046875 19.308594 28.125 19.429688 28.179688 19.535156 C 28.242188 19.640625 28.410156 19.929688 28.558594 20.179688 C 28.707031 20.429688 28.828125 20.640625 28.828125 20.652344 C 28.828125 20.664062 28.882812 20.765625 28.960938 20.871094 C 29.152344 21.171875 29.203125 21.253906 29.234375 21.320312 C 29.25 21.359375 29.527344 21.835938 29.847656 22.371094 C 30.164062 22.914062 30.421875 23.359375 30.421875 23.367188 C 30.421875 23.378906 30.484375 23.476562 30.558594 23.585938 C 30.628906 23.699219 30.753906 23.90625 30.828125 24.046875 C 30.945312 24.261719 31.648438 25.460938 31.78125 25.6875 C 31.804688 25.726562 31.902344 25.894531 32.003906 26.0625 C 32.097656 26.230469 32.242188 26.476562 32.324219 26.601562 C 32.886719 27.496094 32.898438 27.636719 32.417969 28.101562 C 32.289062 28.234375 32.128906 28.402344 32.0625 28.476562 C 31.726562 28.875 31.371094 29.554688 31.289062 29.945312 C 31.273438 30.027344 31.203125 30.160156 31.140625 30.234375 L 31.023438 30.375 L 16.914062 30.375 Z M 16.808594 30.257812 "/>
<path style=" stroke:none;fill-rule:nonzero;fill:rgb(100%,100%,100%);fill-opacity:1;" d="M 23.25 39.398438 C 23.007812 39.316406 22.648438 39.148438 22.554688 39.074219 C 22.523438 39.046875 22.378906 38.910156 22.238281 38.773438 C 21.496094 38.039062 21.335938 36.972656 21.808594 36.015625 C 21.890625 35.851562 22.050781 35.621094 22.164062 35.496094 C 22.410156 35.234375 22.839844 34.945312 23.042969 34.894531 C 23.117188 34.875 23.210938 34.839844 23.242188 34.816406 C 23.277344 34.785156 23.546875 34.753906 23.835938 34.742188 C 24.253906 34.726562 24.429688 34.742188 24.640625 34.804688 C 24.972656 34.902344 25.3125 35.0625 25.3125 35.117188 C 25.3125 35.136719 25.339844 35.15625 25.371094 35.15625 C 25.496094 35.15625 26.015625 35.753906 26.136719 36.035156 C 26.203125 36.183594 26.277344 36.339844 26.304688 36.394531 C 26.378906 36.523438 26.402344 37.257812 26.351562 37.554688 C 26.304688 37.804688 26.117188 38.273438 25.996094 38.433594 C 25.929688 38.515625 25.441406 39.003906 25.351562 39.070312 C 25.238281 39.152344 24.859375 39.328125 24.789062 39.328125 C 24.75 39.328125 24.695312 39.351562 24.664062 39.382812 C 24.570312 39.476562 23.507812 39.488281 23.25 39.398438 Z M 23.25 39.398438 "/>
<path style=" stroke:none;fill-rule:nonzero;fill:rgb(100%,100%,100%);fill-opacity:1;" d="M 11.789062 35.777344 C 11.683594 35.773438 11.585938 35.742188 11.554688 35.71875 C 11.53125 35.699219 11.390625 35.664062 11.25 35.648438 C 10.992188 35.609375 10.96875 35.605469 10.695312 35.472656 C 10.609375 35.429688 10.519531 35.390625 10.492188 35.390625 C 10.441406 35.390625 9.828125 35.039062 9.710938 34.941406 C 9.664062 34.910156 9.527344 34.796875 9.402344 34.691406 C 9.179688 34.507812 8.773438 34.070312 8.585938 33.808594 C 8.421875 33.578125 8.078125 32.882812 8.039062 32.714844 C 8.023438 32.625 7.988281 32.53125 7.964844 32.503906 C 7.941406 32.476562 7.910156 32.347656 7.894531 32.222656 C 7.875 32.097656 7.839844 31.964844 7.816406 31.929688 C 7.726562 31.828125 7.757812 30.730469 7.851562 30.28125 C 7.894531 30.058594 7.949219 29.867188 7.96875 29.835938 C 7.988281 29.8125 8.023438 29.722656 8.039062 29.640625 C 8.066406 29.507812 8.222656 29.136719 8.339844 28.921875 C 8.453125 28.714844 8.511719 28.613281 8.570312 28.554688 C 8.601562 28.519531 8.664062 28.429688 8.710938 28.367188 C 8.871094 28.109375 9.132812 27.835938 9.445312 27.582031 C 9.726562 27.351562 10.257812 27 10.316406 27 C 10.339844 27 10.441406 26.960938 10.535156 26.90625 C 10.632812 26.851562 10.742188 26.8125 10.789062 26.8125 C 10.835938 26.8125 10.878906 26.792969 10.894531 26.773438 C 10.914062 26.746094 11.007812 26.714844 11.121094 26.695312 C 11.230469 26.679688 11.34375 26.644531 11.367188 26.625 C 11.398438 26.601562 11.597656 26.570312 11.8125 26.554688 C 12.164062 26.527344 12.398438 26.546875 13.410156 26.660156 C 13.617188 26.679688 13.632812 26.671875 13.753906 26.515625 C 13.820312 26.433594 13.875 26.34375 13.875 26.320312 C 13.875 26.304688 13.941406 26.175781 14.023438 26.042969 C 14.25 25.671875 15.046875 24.320312 15.046875 24.304688 C 15.046875 24.296875 15.113281 24.191406 15.1875 24.078125 C 15.265625 23.960938 15.328125 23.859375 15.328125 23.847656 C 15.328125 23.832031 15.496094 23.539062 15.703125 23.210938 C 15.910156 22.871094 16.078125 22.585938 16.078125 22.566406 C 16.078125 22.554688 16.140625 22.445312 16.21875 22.335938 C 16.292969 22.222656 16.359375 22.121094 16.359375 22.101562 C 16.359375 22.085938 16.398438 22.015625 16.445312 21.945312 C 16.578125 21.75 16.96875 21.09375 16.96875 21.066406 C 16.96875 21.054688 17.027344 20.953125 17.101562 20.847656 C 17.175781 20.738281 17.25 20.617188 17.265625 20.578125 C 17.285156 20.539062 17.339844 20.445312 17.390625 20.367188 C 17.441406 20.289062 17.523438 20.152344 17.570312 20.0625 C 17.621094 19.972656 17.804688 19.667969 17.972656 19.386719 C 18.140625 19.105469 18.28125 18.871094 18.28125 18.863281 C 18.28125 18.847656 18.335938 18.753906 18.410156 18.640625 C 18.476562 18.535156 18.5625 18.398438 18.589844 18.339844 C 18.621094 18.289062 18.839844 17.921875 19.070312 17.523438 C 19.3125 17.128906 19.523438 16.773438 19.546875 16.734375 C 20.507812 15.117188 20.746094 14.71875 20.816406 14.617188 C 20.867188 14.550781 20.90625 14.445312 20.90625 14.390625 C 20.90625 14.304688 20.566406 13.851562 20.363281 13.664062 C 20.265625 13.574219 20.035156 13.191406 19.878906 12.867188 C 19.648438 12.375 19.648438 12.367188 19.59375 12.152344 C 19.570312 12.039062 19.523438 11.867188 19.496094 11.757812 C 19.433594 11.515625 19.464844 10.265625 19.539062 10.054688 C 19.566406 9.976562 19.632812 9.773438 19.6875 9.601562 C 19.878906 8.992188 20.277344 8.351562 20.804688 7.835938 C 21.203125 7.445312 21.464844 7.257812 21.984375 7.007812 C 22.125 6.941406 22.273438 6.867188 22.3125 6.847656 C 22.351562 6.824219 22.460938 6.789062 22.546875 6.773438 C 22.632812 6.753906 22.734375 6.722656 22.757812 6.703125 C 22.941406 6.558594 24.285156 6.492188 24.84375 6.601562 C 26.273438 6.882812 27.539062 7.816406 28.117188 9.015625 C 28.347656 9.496094 28.40625 9.640625 28.40625 9.726562 C 28.40625 9.769531 28.425781 9.839844 28.453125 9.882812 C 28.507812 9.996094 28.601562 10.558594 28.609375 10.828125 C 28.621094 11.566406 28.472656 12.257812 28.160156 12.9375 C 28.054688 13.160156 27.65625 13.726562 27.464844 13.929688 C 27.097656 14.320312 27.097656 14.308594 27.546875 15.066406 C 27.769531 15.429688 27.964844 15.769531 27.992188 15.820312 C 28.011719 15.871094 28.050781 15.945312 28.078125 15.984375 C 28.148438 16.097656 28.5 16.683594 28.664062 16.96875 C 28.871094 17.328125 29.484375 18.375 29.570312 18.523438 C 29.617188 18.589844 29.773438 18.859375 29.929688 19.125 C 30.085938 19.386719 30.253906 19.667969 30.300781 19.746094 C 30.347656 19.835938 30.441406 19.992188 30.507812 20.109375 C 30.566406 20.226562 30.652344 20.351562 30.683594 20.398438 C 30.722656 20.433594 30.75 20.476562 30.75 20.496094 C 30.75 20.511719 30.945312 20.859375 31.191406 21.265625 C 31.429688 21.675781 31.671875 22.089844 31.726562 22.195312 C 31.785156 22.296875 31.871094 22.445312 31.921875 22.523438 C 31.96875 22.601562 32.039062 22.714844 32.070312 22.78125 C 32.109375 22.847656 32.554688 23.601562 33.058594 24.453125 C 33.566406 25.3125 33.984375 26.035156 33.984375 26.0625 C 33.984375 26.085938 34.007812 26.109375 34.03125 26.109375 C 34.058594 26.109375 34.078125 26.136719 34.078125 26.171875 C 34.078125 26.195312 34.144531 26.324219 34.21875 26.453125 C 34.351562 26.664062 34.367188 26.671875 34.585938 26.671875 C 34.707031 26.671875 34.835938 26.648438 34.859375 26.621094 C 34.894531 26.585938 35.183594 26.566406 35.679688 26.566406 C 36.421875 26.554688 36.460938 26.558594 36.933594 26.710938 C 37.351562 26.847656 37.796875 27.039062 38.132812 27.246094 C 38.546875 27.496094 39.164062 28.101562 39.460938 28.535156 C 39.664062 28.835938 40.03125 29.585938 40.054688 29.742188 C 40.070312 29.820312 40.128906 30.066406 40.160156 30.140625 C 40.214844 30.28125 40.222656 30.359375 40.246094 30.914062 C 40.257812 31.222656 40.253906 31.601562 40.222656 31.757812 C 40.140625 32.273438 40.070312 32.554688 40.027344 32.597656 C 40.003906 32.625 39.984375 32.671875 39.984375 32.710938 C 39.984375 32.847656 39.578125 33.621094 39.347656 33.921875 C 39.148438 34.183594 38.390625 34.921875 38.320312 34.921875 C 38.289062 34.921875 38.25 34.941406 38.242188 34.96875 C 38.222656 35.027344 37.226562 35.53125 37.121094 35.53125 C 37.070312 35.53125 37.027344 35.550781 37.011719 35.570312 C 36.996094 35.597656 36.863281 35.628906 36.714844 35.648438 C 36.566406 35.664062 36.414062 35.703125 36.378906 35.734375 C 36.289062 35.808594 34.777344 35.808594 34.683594 35.738281 C 34.648438 35.703125 34.503906 35.664062 34.371094 35.648438 C 34.238281 35.628906 34.117188 35.597656 34.097656 35.570312 C 34.085938 35.550781 34.039062 35.53125 33.996094 35.53125 C 33.882812 35.53125 33.183594 35.179688 32.851562 34.953125 C 32.507812 34.714844 32.007812 34.238281 31.804688 33.945312 C 31.472656 33.46875 31.203125 32.925781 31.148438 32.609375 C 31.128906 32.515625 31.054688 32.371094 30.984375 32.296875 L 30.851562 32.15625 L 17.058594 32.15625 L 16.945312 32.277344 C 16.882812 32.34375 16.800781 32.515625 16.753906 32.664062 C 16.472656 33.609375 15.835938 34.441406 14.945312 35.027344 C 14.578125 35.269531 14.132812 35.484375 13.941406 35.515625 C 13.851562 35.53125 13.78125 35.558594 13.78125 35.585938 C 13.78125 35.601562 13.660156 35.632812 13.515625 35.652344 C 13.367188 35.671875 13.226562 35.703125 13.214844 35.726562 C 13.179688 35.773438 12.089844 35.816406 11.789062 35.777344 Z M 30.996094 30.09375 C 31.066406 30.019531 31.128906 29.886719 31.148438 29.804688 C 31.234375 29.414062 31.589844 28.734375 31.921875 28.335938 C 31.988281 28.257812 32.148438 28.089844 32.277344 27.960938 C 32.644531 27.601562 32.660156 27.566406 32.476562 27.246094 C 32.398438 27.097656 32.265625 26.871094 32.183594 26.742188 C 32.101562 26.617188 31.953125 26.371094 31.859375 26.203125 C 31.761719 26.035156 31.664062 25.867188 31.640625 25.828125 C 31.503906 25.601562 30.804688 24.402344 30.691406 24.1875 C 30.617188 24.046875 30.488281 23.839844 30.414062 23.726562 C 30.339844 23.617188 30.28125 23.515625 30.28125 23.507812 C 30.28125 23.496094 30.023438 23.054688 29.703125 22.515625 C 29.382812 21.976562 29.109375 21.503906 29.097656 21.464844 C 29.0625 21.394531 29.007812 21.316406 28.820312 21.015625 C 28.742188 20.90625 28.6875 20.808594 28.6875 20.792969 C 28.6875 20.777344 28.566406 20.570312 28.421875 20.320312 C 28.273438 20.066406 28.101562 19.78125 28.039062 19.671875 C 27.984375 19.570312 27.902344 19.445312 27.867188 19.40625 C 27.828125 19.367188 27.796875 19.3125 27.796875 19.292969 C 27.796875 19.273438 27.726562 19.140625 27.636719 18.992188 C 27.546875 18.84375 27.378906 18.558594 27.261719 18.351562 C 27.140625 18.148438 27.023438 17.945312 27 17.90625 C 26.976562 17.867188 26.835938 17.628906 26.683594 17.371094 C 26.535156 17.117188 26.378906 16.839844 26.324219 16.761719 C 26.277344 16.683594 26.082031 16.351562 25.890625 16.023438 C 25.703125 15.695312 25.515625 15.402344 25.476562 15.375 C 25.386719 15.300781 25.128906 15.304688 24.902344 15.378906 C 24.660156 15.464844 23.183594 15.46875 23.101562 15.382812 C 23.070312 15.355469 22.949219 15.328125 22.828125 15.328125 C 22.597656 15.335938 22.464844 15.414062 22.371094 15.609375 C 22.339844 15.675781 22.257812 15.835938 22.179688 15.960938 C 22.105469 16.089844 21.996094 16.277344 21.9375 16.382812 C 21.882812 16.484375 21.816406 16.59375 21.796875 16.617188 C 21.777344 16.648438 21.703125 16.773438 21.628906 16.898438 C 21.558594 17.027344 21.445312 17.214844 21.378906 17.320312 C 21.316406 17.421875 21.207031 17.605469 21.140625 17.726562 C 21.074219 17.851562 20.867188 18.222656 20.664062 18.546875 C 20.464844 18.878906 20.265625 19.222656 20.210938 19.3125 C 20.15625 19.402344 20.089844 19.519531 20.066406 19.570312 C 20.042969 19.621094 19.96875 19.742188 19.902344 19.839844 C 19.835938 19.941406 19.78125 20.023438 19.78125 20.035156 C 19.78125 20.042969 19.648438 20.269531 19.484375 20.535156 C 19.320312 20.808594 19.179688 21.054688 19.160156 21.09375 C 19.140625 21.132812 19.085938 21.226562 19.03125 21.304688 C 18.976562 21.382812 18.921875 21.476562 18.902344 21.515625 C 18.882812 21.554688 18.808594 21.695312 18.734375 21.820312 C 17.964844 23.117188 17.71875 23.539062 17.71875 23.554688 C 17.71875 23.566406 17.664062 23.652344 17.597656 23.753906 C 17.53125 23.851562 17.457031 23.972656 17.433594 24.023438 C 17.410156 24.074219 17.335938 24.203125 17.273438 24.304688 C 17.210938 24.410156 17.140625 24.523438 17.121094 24.5625 C 17.109375 24.601562 17.058594 24.683594 17.015625 24.75 C 16.96875 24.816406 16.882812 24.953125 16.828125 25.054688 C 16.773438 25.160156 16.535156 25.566406 16.292969 25.960938 C 16.058594 26.351562 15.84375 26.714844 15.820312 26.757812 C 15.789062 26.796875 15.683594 27 15.570312 27.195312 C 15.371094 27.558594 15.371094 27.558594 15.453125 27.691406 C 15.503906 27.757812 15.621094 27.902344 15.730469 28.007812 C 16.027344 28.296875 16.320312 28.726562 16.519531 29.132812 C 16.617188 29.339844 16.714844 29.539062 16.734375 29.585938 C 16.757812 29.625 16.789062 29.738281 16.804688 29.828125 C 16.820312 29.921875 16.890625 30.054688 16.949219 30.117188 L 17.058594 30.234375 L 30.882812 30.234375 Z M 30.996094 30.09375 "/>
<path style=" stroke:none;fill-rule:nonzero;fill:rgb(100%,100%,100%);fill-opacity:1;" d="M 36.257812 22.613281 C 36.207031 22.597656 36.121094 22.570312 36.070312 22.554688 C 36.019531 22.527344 35.882812 22.472656 35.765625 22.425781 C 35.378906 22.265625 34.890625 21.671875 34.742188 21.179688 C 34.726562 21.117188 34.714844 20.882812 34.714844 20.648438 C 34.714844 20.273438 34.726562 20.195312 34.859375 19.921875 C 35.085938 19.460938 35.570312 18.996094 35.941406 18.910156 C 36.007812 18.890625 36.09375 18.859375 36.121094 18.835938 C 36.195312 18.777344 36.726562 18.757812 36.984375 18.804688 C 37.574219 18.914062 38.0625 19.289062 38.347656 19.851562 C 38.503906 20.160156 38.507812 20.191406 38.507812 20.714844 C 38.507812 21.246094 38.503906 21.261719 38.34375 21.5625 C 38.148438 21.933594 37.808594 22.273438 37.507812 22.40625 C 37.386719 22.460938 37.253906 22.527344 37.203125 22.554688 C 37.105469 22.601562 36.402344 22.648438 36.257812 22.613281 Z M 36.257812 22.613281 "/>
<path style=" stroke:none;fill-rule:nonzero;fill:rgb(100%,100%,100%);fill-opacity:1;" d="M 11.414062 21.847656 C 10.753906 21.675781 10.078125 20.984375 9.882812 20.296875 C 9.851562 20.179688 9.824219 19.910156 9.824219 19.6875 C 9.820312 19.226562 9.914062 18.871094 10.132812 18.527344 C 10.289062 18.296875 10.632812 17.90625 10.695312 17.90625 C 10.714844 17.90625 10.820312 17.847656 10.929688 17.773438 C 11.042969 17.699219 11.214844 17.621094 11.320312 17.601562 C 11.421875 17.585938 11.535156 17.550781 11.570312 17.523438 C 11.648438 17.457031 12.585938 17.507812 12.796875 17.585938 C 13.214844 17.753906 13.445312 17.898438 13.691406 18.148438 C 13.921875 18.378906 14.015625 18.535156 14.269531 19.070312 C 14.296875 19.132812 14.320312 19.410156 14.320312 19.683594 C 14.316406 20.171875 14.257812 20.441406 14.101562 20.726562 C 14.027344 20.851562 13.742188 21.226562 13.632812 21.328125 C 13.527344 21.433594 13.140625 21.703125 13.089844 21.703125 C 13.070312 21.703125 12.992188 21.742188 12.914062 21.785156 C 12.804688 21.84375 12.632812 21.863281 12.164062 21.871094 C 11.832031 21.882812 11.492188 21.867188 11.414062 21.847656 Z M 11.414062 21.847656 "/>
</g>
</svg>
